# xmcd
#
# Track frame offsets: 
#        150
#        15881
#        34947
#        53027
#        73275
#        106631
#        125143
#        140723
#        161698
#        182106
#        204578
#
# Disc length: 3025 seconds
#
# Revision: 2
# Processed by: cddbd v1.5.2PL0 Copyright (c) Steve Scherf et al.
# Submitted via: ExactAudioCopy v1.1
#
DISCID=9c0bcf0b
DTITLE=Blues Company - The quiet side of
DYEAR=2006
DGENRE=Blues
TTITLE0=What's wrong?
TTITLE1=Toscho's boogie
TTITLE2=Bad decision
TTITLE3=Blow, Jay, blow
TTITLE4=Sweet Frisco blues
TTITLE5=Rich man's blues
TTITLE6=Blues is my middle name
TTITLE7=Run your finger through my hair
TTITLE8=Dinner at Woolfies
TTITLE9=The river
TTITLE10=Same old feeling
EXTD=
EXTT0=
EXTT1=
EXTT2=
EXTT3=
EXTT4=
EXTT5=
EXTT6=
EXTT7=
EXTT8=
EXTT9=
EXTT10=
PLAYORDER=
